<?xml version="1.0" encoding="utf-8"?>
<!-- Generator: Adobe Illustrator 25.2.1, SVG Export Plug-In . SVG Version: 6.00 Build 0)  -->
<svg version="1.1" id="Layer_1" xmlns="http://www.w3.org/2000/svg" xmlns:xlink="http://www.w3.org/1999/xlink" x="0px" y="0px"
	 viewBox="0 0 500 164" style="enable-background:new 0 0 500 164;" xml:space="preserve">
<style type="text/css">
	.st0{fill:#FFFFFF;stroke:#FFFFFF;stroke-miterlimit:10;}
</style>
<path class="st0" d="M499.5,164C498.1,164,499.5,163.9,499.5,164c-165.5-1-333,1.5-499-1.5c0-15,0-28,0-44c2.7,1,0,3,0,0
	C37,131,75,138,113,142c8,1,17,1,25,2c28,1,56,1,85-2c8-1,15-2,23-3c60-9,113-28,165-61c34-22,63-47,88.6-75.9
	C499.6,2.1,500,110,499.5,164z"/>
</svg>
