<?xml version="1.0" encoding="utf-8"?>
<!-- Generator: Adobe Illustrator 25.2.0, SVG Export Plug-In . SVG Version: 6.00 Build 0)  -->
<svg version="1.1" id="Layer_1" xmlns="http://www.w3.org/2000/svg" xmlns:xlink="http://www.w3.org/1999/xlink" x="0px" y="0px"
	 viewBox="0 0 1152 259" style="enable-background:new 0 0 1152 259;" xml:space="preserve">
<style type="text/css">
	.st0{fill:#FFFFFF;stroke:#FFFFFF;stroke-miterlimit:10;}
</style>
<path class="st0" d="M0.5,59.5v200h1151c0-83,0-166,0-250.3c0,0-8,27.3-26,56.3c-10.8,17.4-23.8,35.8-33,47
	c-9.6,11.6-28.6,31.9-48,48c-24.9,20.6-51.9,35.9-52.5,36.5c-62,34-131.5,49.5-200,37c-125-28-245-55-374-83c-20-5-38-8-58-12
	C236,111,121,85,0.5,59.5z"/>
</svg>
