<svg width="22" height="24" viewBox="0 0 22 24" fill="none" xmlns="http://www.w3.org/2000/svg">
<path d="M4.40631 9.15011C4.23817 9.04312 4.014 9.04312 3.84587 9.15011L1.04368 10.7014C0.931587 10.7549 0.819502 10.7817 0.707413 10.7817C0.427195 10.7817 0.146975 10.6212 0.0348873 10.327C-0.0771999 10.0328 0.0909309 9.68504 0.371149 9.52456L2.30466 8.45469C2.50081 8.3477 2.50081 8.10698 2.30466 7.99999L0.371149 6.93011C0.0909309 6.76963 -0.0771999 6.42192 0.0348873 6.12771C0.174997 5.7265 0.67939 5.56602 1.04368 5.75325L3.00521 6.84987C3.17334 6.93011 3.42554 6.79638 3.42554 6.60915V4.4694C3.42554 4.12169 3.67774 3.80072 4.04202 3.77398C4.46235 3.74723 4.82663 4.04145 4.82663 4.44265V7.54529C4.82663 7.73252 4.93872 7.91975 5.10685 7.99999L7.06839 9.06987C7.23652 9.17685 7.46069 9.17685 7.62882 9.06987L10.0107 7.75927C10.1788 7.65228 10.2909 7.4918 10.2909 7.30457V5.13807C10.2909 4.95084 10.1788 4.76361 10.0107 4.68337L7.23652 3.1588C6.9563 2.99832 6.78817 2.65061 6.90026 2.35639C7.04037 1.95519 7.54476 1.79471 7.90904 1.98194L9.87058 3.07856C10.0667 3.18555 10.2909 3.05181 10.2909 2.83784V0.698084C10.2909 0.350374 10.5431 0.029411 10.9354 0.00266405C11.3557 -0.0240829 11.692 0.270133 11.692 0.671337V2.83784C11.692 3.05181 11.9162 3.1588 12.1123 3.07856L14.0739 2.00868C14.4381 1.79471 14.9425 1.95519 15.0827 2.38314C15.1947 2.7041 15.0266 3.02506 14.7464 3.18555L11.9722 4.71012C11.8041 4.81711 11.692 4.97759 11.692 5.16482V7.33132C11.692 7.51855 11.8041 7.70577 11.9722 7.78601L14.3541 9.06987C14.5222 9.17685 14.7464 9.17685 14.9145 9.06987L16.8761 7.99999C17.0442 7.893 17.1563 7.73252 17.1563 7.54529V4.49614C17.1563 4.14843 17.4365 3.82747 17.8008 3.80072C18.2211 3.77398 18.5574 4.06819 18.5574 4.4694V6.6359C18.5574 6.84987 18.7815 6.98361 18.9777 6.87662L20.9392 5.78C21.2755 5.59277 21.6958 5.69976 21.892 6.02072C22.0881 6.34168 21.976 6.74288 21.6398 6.93011L19.6782 8.02674C19.4821 8.13372 19.4821 8.37445 19.6782 8.48143L21.6398 9.57806C21.976 9.76529 22.0881 10.1665 21.892 10.4875C21.7519 10.7014 21.5277 10.8084 21.2755 10.8084C21.1634 10.8084 21.0233 10.7817 20.9392 10.7282L18.137 9.17685C17.9689 9.06987 17.7447 9.06987 17.5766 9.17685L15.6151 10.2735C15.4469 10.3805 15.3348 10.5409 15.3348 10.7282V13.3494C15.3348 13.5366 15.4469 13.7238 15.6151 13.8041L17.5766 14.9007C17.7447 15.0077 17.9689 15.0077 18.137 14.9007L20.9112 13.3494C21.2195 13.1621 21.6398 13.2424 21.864 13.5099C22.1162 13.8308 22.0041 14.2855 21.6398 14.4727L19.6782 15.5694C19.4821 15.6764 19.4821 15.9171 19.6782 16.0241L21.6398 17.1207C21.976 17.3079 22.0881 17.7091 21.892 18.0301C21.7519 18.2441 21.5277 18.351 21.2755 18.351C21.1634 18.351 21.0233 18.3243 20.9392 18.2708L18.9777 17.1742C18.7815 17.0672 18.5574 17.2009 18.5574 17.4149V19.5547C18.5574 19.9024 18.3052 20.2233 17.9409 20.2501C17.5206 20.2768 17.1563 19.9826 17.1563 19.5814V16.5055C17.1563 16.3183 17.0442 16.131 16.8761 16.0508L14.9145 14.9542C14.7464 14.8472 14.5222 14.8472 14.3541 14.9542L11.9722 16.2648C11.8041 16.3718 11.692 16.5323 11.692 16.7195V18.886C11.692 19.0732 11.8041 19.2604 11.9722 19.3407L14.7464 20.8653C15.0827 21.0525 15.2228 21.4269 15.0546 21.7479C14.9145 21.9886 14.6903 22.1224 14.4381 22.1224C14.3261 22.1224 14.186 22.0956 14.1019 22.0421L12.1404 20.9455C11.9442 20.8385 11.72 20.9722 11.72 21.1862V23.2992C11.72 23.6469 11.4678 23.9679 11.1035 23.9946C10.6832 24.0481 10.3189 23.7272 10.3189 23.326V21.1595C10.3189 20.9455 10.0948 20.8118 9.8986 20.9187L7.93707 22.0154C7.82498 22.0689 7.71289 22.0956 7.6008 22.0956C7.32058 22.0956 7.04036 21.9351 6.92828 21.6409C6.81619 21.3467 6.98432 20.999 7.26454 20.8385L10.0387 19.3139C10.2068 19.2069 10.3189 19.0465 10.3189 18.8592V16.6927C10.3189 16.5055 10.2068 16.3183 10.0387 16.238L7.62882 14.9542C7.46069 14.8472 7.23652 14.8472 7.06839 14.9542L5.10685 16.0508C4.93872 16.1578 4.82663 16.3183 4.82663 16.5055V19.5547C4.82663 19.9024 4.57444 20.2233 4.18213 20.2501C3.7618 20.2768 3.42554 19.9826 3.42554 19.5814V17.4149C3.42554 17.2009 3.20136 17.0672 3.00521 17.1742L1.04368 18.2708C0.931587 18.3243 0.819502 18.351 0.707413 18.351C0.427195 18.351 0.146975 18.1906 0.0348873 17.8963C-0.0771999 17.6021 0.0909309 17.2544 0.371149 17.0939L2.30466 16.0241C2.50081 15.9171 2.50081 15.6764 2.30466 15.5694L0.371149 14.4995C0.0909309 14.339 -0.0771999 13.9913 0.0348873 13.6971C0.174997 13.2959 0.67939 13.1354 1.04368 13.3226L3.84587 14.8739C4.014 14.9809 4.23817 14.9809 4.40631 14.8739L6.36784 13.7773C6.53597 13.6703 6.64806 13.5099 6.64806 13.3226V10.7014C6.64806 10.5142 6.53597 10.327 6.36784 10.2467L4.40631 9.15011ZM8.04915 13.2691C8.04915 13.5099 8.18926 13.7238 8.38542 13.8308L10.7112 15.0879C10.8794 15.1949 11.1035 15.1949 11.2717 15.0879L13.6535 13.7773C13.8217 13.6703 13.9338 13.5099 13.9338 13.3226V10.7014C13.9338 10.5142 13.8217 10.327 13.6535 10.2467L11.2717 8.93613C11.1035 8.82914 10.8794 8.82914 10.7112 8.93613L8.32937 10.2467C8.16124 10.3537 8.04915 10.5142 8.04915 10.7014V13.2691Z" fill="white"/>
</svg>
