<?xml version="1.0" encoding="UTF-8"?>
<svg width="24" height="24" viewBox="0 0 24 24" fill="none" xmlns="http://www.w3.org/2000/svg">
<path d="M23.3455 8.50879C21.4203 8.50879 19.8543 10.0748 19.8543 12V20.5088C19.8543 21.7117 18.875 22.6903 17.6721 22.6903L10.5817 22.691C9.60818 22.691 8.79131 22.0454 8.51135 21.1633H12C13.9246 21.1633 15.4906 19.5973 15.4906 17.6721V6.3279C15.4906 4.40268 13.9246 2.83669 12 2.83669H9.81783V2.07287C9.81783 0.93001 8.88814 0 7.74561 0C6.60275 0 5.67274 0.93001 5.67274 2.07287V2.83669H3.49121C1.566 2.83669 0 4.40268 0 6.3279V17.6721C0 19.5973 1.566 21.1633 3.49121 21.1633H7.15724C7.465 22.776 8.88111 24 10.5817 24L17.6721 23.9994C19.5973 23.9994 21.1633 22.4334 21.1633 20.5088V12C21.1633 10.7967 22.1425 9.81783 23.3455 9.81783C23.7073 9.81783 24 9.52477 24 9.16331C24 8.80185 23.7073 8.50879 23.3455 8.50879ZM6.98178 2.07287C6.98178 1.65165 7.32439 1.30904 7.74561 1.30904C8.16651 1.30904 8.50879 1.65165 8.50879 2.07287V2.83669H6.98178V2.07287ZM3.49121 4.14573H12C13.2029 4.14573 14.1815 5.12464 14.1815 6.3279V8.50879H1.30904V6.3279C1.30904 5.12464 2.28795 4.14573 3.49121 4.14573ZM1.30904 17.6721V9.81783H14.1815V17.6721C14.1815 18.875 13.2029 19.8543 12 19.8543H3.49121C2.28795 19.8543 1.30904 18.875 1.30904 17.6721ZM8.50879 14.8367C8.50879 14.4749 8.80185 14.1822 9.16331 14.1822H12C12.3615 14.1822 12.6545 14.4749 12.6545 14.8367C12.6545 15.1985 12.3615 15.4912 12 15.4912H9.16331C8.80185 15.4912 8.50879 15.1985 8.50879 14.8367ZM8.50879 12C8.50879 11.6385 8.80185 11.3455 9.16331 11.3455H12C12.3615 11.3455 12.6545 11.6385 12.6545 12C12.6545 12.3615 12.3615 12.6545 12 12.6545H9.16331C8.80185 12.6545 8.50879 12.3615 8.50879 12ZM8.50879 17.6721C8.50879 17.3103 8.80185 17.0176 9.16331 17.0176H12C12.3615 17.0176 12.6545 17.3103 12.6545 17.6721C12.6545 18.0339 12.3615 18.3266 12 18.3266H9.16331C8.80185 18.3266 8.50879 18.0339 8.50879 17.6721ZM8.50879 6.3279C8.50879 5.96644 8.80185 5.67338 9.16331 5.67338H12C12.3615 5.67338 12.6545 5.96644 12.6545 6.3279C12.6545 6.68936 12.3615 6.98242 12 6.98242H9.16331C8.80185 6.98242 8.50879 6.68936 8.50879 6.3279Z" fill="white"/>
</svg>
