<svg width="26" height="26" viewBox="0 0 26 26" fill="none" xmlns="http://www.w3.org/2000/svg">
<path d="M25.4063 5.36378L26 4.77008L21.2299 0L20.6362 0.593701L21.5319 1.48937L17.9543 5.06693L16.465 3.57756L15.8661 4.17126L16.4598 4.76496L3.57756 17.6524L4.47323 18.548L3.28071 19.7406L4.47323 20.9331L0 25.4063L0.593701 26L5.06693 21.5268L6.25945 22.7193L7.45197 21.5268L8.34764 22.4224L21.2299 9.54016L21.8236 10.1339L22.4173 9.54016L20.9331 8.05079L24.5106 4.47323L25.4063 5.36378ZM6.85827 20.9331L6.26457 21.5268L4.47835 19.7406L5.06693 19.1417L6.85827 20.9331ZM8.34764 21.2299L4.77008 17.6524L9.00787 13.4146L10.4972 14.9039L11.0909 14.3102L9.60158 12.8209L11.3878 11.0346L12.2835 11.9303L12.8772 11.3366L11.9815 10.4409L13.7677 8.65473L15.2571 10.1441L15.8508 9.55039L14.3614 8.06102L17.0433 5.37913L20.6209 8.95669L8.34764 21.2299ZM20.3343 7.45197L18.548 5.66575L22.1256 2.08819L23.9118 3.87441L20.3343 7.45197Z" fill="white"/>
</svg>
